<?xml version="1.0" encoding="UTF-8"?>
<svg id="logo-amour-oracle" xmlns="http://www.w3.org/2000/svg" version="1.1" viewBox="0 0 850.82 574.25">
  <defs>
    <style>
      .logo-path {
        fill: #f1354c;
      }
    </style>
  </defs>
  <path class="logo-path" d="M678.84,548.84h-45.4s-25.14,1.55-25.14-34.5l3.21-189.2s-.67-22.77,17.51-22.77v-1.71h-52.14v1.71s14-.78,14,17.89l-1.25,194.08s.77,34.37-27.52,34.37l-58.28.14v1.96h161.7c7.18,0,49.04.98,71.5,23.44l1.13-.84s-1.31-14.65,26.21-40.99l-1.19-1.07s-12.27,17.51-84.35,17.51v-.02Z"/>
  <path class="logo-path" d="M571.39,475.89l-.81-.35c-11.17,19.38-21.99,31.11-37.93,31.36-28.35.45-51.79-37.7-52.36-85.21-.58-47.5,21.93-86.36,50.28-86.81l-.08.02c19.41-.31,34.21,22.23,33.65,50.31h1.58v-27.16c0-17.23-8.29-31.56-17.42-34.51h0c-3.85-1.23-7.74-1.82-11.64-1.82-29.39-.05-58.36,32.46-69.18,80.05-2.73,12-4.02,23.92-4.02,35.3,0,39.76,15.75,73.05,41.26,81.14,23.91,7.58,49.97-10.31,66.69-42.31h-.02Z"/>
  <path class="logo-path" d="M531.02,178.3c5.65,45.18-11.35,84.48-37.98,87.77-26.63,3.3-52.8-30.65-58.46-75.83-5.66-45.18,11.35-84.47,37.98-87.77,14.05-1.75,27.97,6.89,38.83,22.08,1.77-3.77,3.67-7.51,5.68-11.21,2.01-3.7,4.15-7.36,6.4-10.98-7.01-7.12-15.39-11.84-24.79-13.39-34.14-5.64-68.95,32.57-77.74,85.35-8.8,52.77,11.75,100.11,45.9,105.75,34.14,5.63,68.95-32.58,77.74-85.36,6.12-36.68-1.95-70.73-18.9-89.98-4.87,7.03-9.2,14.27-13.01,21.66,9.06,13.42,15.79,31.52,18.34,51.9h.01Z"/>
  <path class="logo-path" d="M849.78,279.53c-2.81,26.87-22.88,47-44.81,44.71s-36.02-28.52-43.96-62.7c-14.43-67.44-33.34-84.01-73.39-89.88,60.17-4.6,106.7-44.61,105.13-91.61-1.62-48.69-54-86.03-117.3-78.48h0c-47.57,6.55-94.49,30.76-130.17,71.44-8.21,9.36-15.48,19.19-21.8,29.36-2.26,3.62-4.39,7.28-6.4,10.98s-3.91,7.44-5.68,11.21c-16.68,35.38-22.91,73.58-18.79,109.83l1.56-.05c-5.69-35.24.64-73.3,18.51-107.93,3.81-7.39,8.15-14.63,13.01-21.66,7.28-10.51,15.72-20.54,25.33-29.88,34.2-33.26,76.77-51.65,118.44-54.71,56.12-1.85,102.79,32.47,104.15,73.51,1.29,38.67-38.01,71.78-89.48,77.06-.04.15-.06.29-.1.44.04-.15.06-.29.1-.44,10.79-49.29,21.53-66.29,21.53-66.29v-.8h-41.78v1.45c19.22.95,11.86,29.54,11.86,29.54,0,0-3.63,16.09-8.38,37-5.96,26.25-13.66,60.1-18.11,79.26-8.01,34.43-26.6,33.2-26.6,33.2v1.84h67.17v-1.84c-23.58,0-19.63-22.61-19.63-22.61,3.84-37.13,8.67-66.28,13.52-88.84,30.32,4.48,39.2,19.19,54.09,88.12,11.25,45.78,28.6,72.33,56.35,75.23,27.75,2.9,53.14-22.33,56.68-56.34l-1.06-.12h.01Z"/>
  <path class="logo-path" d="M447.82,507.78c-1.53-1.7-2.28-3.96-2.28-6.26v-106.63l-.25-20.72c0-2.59-.35-5.19-1.18-7.65-.85-2.49-1.99-4.47-3.25-6.04-3.05-3.82-7.72-5.88-12.61-6.07-25.81-.95-44.06,27.21-46.41,31.03v2.66s17.19-30.62,34.01-22.89c3.6,1.65,6.26,4.82,7.58,8.55,1.21,3.4,2.67,8.88,2.6,14.42v6.57h-.14c0,15.45-19.15,26.42-27.53,30.47-2.35,1.14-3.85,1.73-3.85,1.73-12.64,5.59-22.58,11.98-29.86,17.5-14.91,11.32-22.73,29.96-19.38,48.39,2.11,11.54,8.13,20.79,17.42,24.78,3.06,1.32,6.29,1.95,9.58,1.95,7.13,0,14.57-2.94,21.36-8.18,3.4-2.63,6.37-5.76,9.01-9.15,6.5-8.38,22.28-30.24,23.18-46.15-4.29,11.39-11.85,23.65-15.6,28.48-2.13,2.74-4.54,5.27-7.28,7.39-5.49,4.25-11.51,6.62-17.28,6.62-2.66,0-5.27-.51-7.75-1.57-7.51-3.23-12.38-10.71-14.08-20.04-2.72-14.9,3.61-29.96,15.67-39.11,4.9-3.72,11.29-7.92,19.22-11.84,1.58-.78,3.22-1.55,4.92-2.31,0,0,15.64-6.19,22.36-16.6v95.4s-1.06,18.23,15.97,18.23c0,0,11.21,0,21.08-16.43l-.39-.47c-7.73,8.5-12.4,6.67-14.87,3.94h.03Z"/>
  <path class="logo-path" d="M312.14,499.94c-2.02-4.32-2.85-9.1-2.69-13.87l2.54-76.46c.47-14.23,3.67-29.66,8.84-42.93.35-.88.7-1.76,1.08-2.64,6.17-14.28,17.05-27.43,28.89-25.03,5.87,1.2,10.23,6.18,11.12,12.11,1.16,7.73.24,21.57-12.3,41.53l1.22.86,14.03-15.35c5.07-5.54,9.45-11.69,12.75-18.42,8.07-16.43,8.58-32.09.15-38.44-8.08-6.08-22.08-1.88-35.17,9.31-10.94,9.47-18.1,22.25-22.51,32.66-4.41,10.39-6.09,18.39-6.09,18.39v-28c0-28.74,8.88-32.18,8.88-32.18h-49.46v1.26s14.1.59,18.61,12.38c0,0,3.01,7.24,3.01,19.94l-6.44,127.97s-.95,33.17-23.3,33.17v2.18h70.49v-2.18s-16.32-.58-23.64-16.26h-.01Z"/>
  <path class="logo-path" d="M233.55,104.21l.74,1.3s14.47-17.05,22.22-3.44c0,0,4.3,7.83,4.3,18.98v130.96s2.85,29.27-20.82,32.19v1.84h57.71v-1.84s-17.56,2.92-17.56-32.19V122.31s2.96-5.29,7.62-10.91c6.52-7.88,16.39-16.4,26.12-11.92,3.56,1.64,6.21,4.78,7.52,8.48,1.2,3.37,2.66,8.81,2.58,14.3v129.76s2.85,29.27-20.82,32.19v1.84h57.7v-1.84s-17.55,2.92-17.55-32.19V122.18s.33-.58.94-1.57c3.78-6.12,18.42-27.72,32.79-21.12,3.56,1.64,6.2,4.78,7.51,8.48,1.2,3.37,2.66,8.81,2.58,14.3v162.55c0,30.17,23.66,55.73,53.82,56.5,31.19.8,56.73-24.25,56.73-55.26h-1.46c0,25.3-20.92,45.7-46.4,44.85-24.38-.81-43.35-21.63-43.35-46.03v-155.98l-.25-20.53c0-2.57-.35-5.15-1.17-7.58-.91-2.68-2.17-4.77-3.54-6.37-2.98-3.54-7.45-5.44-12.08-5.62-27.51-1.09-46.38,31.17-46.38,31.17v-11.47c.01-2.38-.26-4.77-.96-7.05-.92-3-2.27-5.29-3.74-7.03-2.99-3.54-7.45-5.44-12.08-5.62-17.79-.71-31.96,12.53-39.77,21.98-4.26,5.17-6.62,9.19-6.62,9.19v-13.44c0-2.35-.27-4.71-.97-6.95-.89-2.86-2.17-5.08-3.57-6.8-3.19-3.89-8.1-5.92-13.14-5.85-18.49.26-28.66,17.3-28.66,17.3v-.02Z"/>
  <path class="logo-path" d="M206.03,299.95c-52.62-14.11-111.2,33.81-130.84,107.04-19.63,73.22,7.1,144.02,59.72,158.13,52.63,14.11,111.21-33.8,130.84-107.03,19.64-73.22-7.09-144.03-59.72-158.14h0ZM177.35,554.3c-40.94.57-74.91-54.39-75.85-122.76-.95-68.36,31.48-124.24,72.42-124.81,40.95-.56,74.91,54.4,75.85,122.76.95,68.37-31.47,124.25-72.42,124.81Z"/>
  <path class="logo-path" d="M147.98,193.95h40.05c-1.56,23.62-2.68,40.37-2.68,40.37,0,0-1.46,52.05-36.04,49.86v1.88h82.93v-1.88s-17.78,2.76-17.78-39.09c0-11.63.89-30.26,2.17-51.14h33.96v-1.96h-101.62l44.91-89.44c-1.78,29.06-3.99,63.2-5.72,89.44h28.6c3.36-53.95,9.23-121.6,9.23-121.6,0,0,2.36-54.05,39.85-56.6v-2.73h-98.16c-14.64,0-29.25,2.01-43.21,6.39C61.96,37.03,18.45,97.25,22.68,165.54l1.47-.12c-3.88-62.76,39.84-118.88,102.03-137.16,11.19-3.29,22.78-5.17,34.47-5.82,4.77-.27,9.56-.17,14.32.2,3.75.29,7.43,1.25,10.77,2.99,5.29,2.76,11.24,8.06,11.24,17.97,0,5.63-1.16,26.73-2.76,52.96l-48.25,95.42h-13.31c-48.21,0-78.76,57.96-78.76,57.96l-19.71,37.31c-29.96,63.03-42.84,118.36-28.04,125.4s43.77-20.08,73.73-83.1l68.09-135.6h0ZM27.84,370.85c-9.28-5.73-9.89-29.9-2.56-56.47,3.3-11.95,8.13-23.42,14.04-34.31l15.71-28.99s30.12-57.13,77.63-57.13h12.31l-68.58,135.6c-16.72,35.18-37.89,47.91-48.56,41.3h.01Z"/>
  <path class="logo-path" d="M587.86,149.4c1.02-22.33,8.37-27.45,8.37-27.45v-.43h-49.28v1.13s12.63.54,16.67,11.09c0,0,1.55,4.37.84,17.87l-3.92,70.76c-1.21,24.7,6.76,44.08,23.49,52.13,15.51,7.46,34.72,2.63,51.53-10.86v-1.95c-7.59,5.35-16.42,7.5-25.97,5.19-17.3-4.17-27.76-23.66-26.39-43.33l4.67-74.14h-.01Z"/>
  <path class="logo-path" d="M717.65,506.56c-25.4.35-47.8-19.82-59.67-49.91,17.52-9.69,36.98-27.25,53.73-50.03,31.89-43.36,41.9-89.12,22.35-102.2-2.27-1.53-4.89-2.47-7.75-3-2.23-.41-4.52-.48-6.78-.35-36.54,2.2-72,37.34-85.46,88.77-15.66,59.86,5.67,117.73,47.62,129.26,4.71,1.3,9.49,1.93,14.29,1.93,26.28,0,52.91-18.85,70.98-48.91l-.27-.18c-14.4,21.41-28.46,34.34-49.03,34.61h0ZM648.98,409.54c-.75-54.08,28.76-98.33,65.94-98.84v.02c4.08.16,7.73,1.23,10.79,3.28,18.4,12.3,8.98,55.36-21.04,96.18-14.7,19.99-31.61,35.73-47.22,45.13-5.19-13.61-8.24-29.19-8.48-45.77h0Z"/>
</svg>